HIERARCHY
ROOT Hips
{
	OFFSET -3.958830 18.904000 13.208200
	CHANNELS 6 Xposition Yposition Zposition Zrotation Yrotation Xrotation 
	JOINT LHipJoint
	{
		OFFSET 0.000000 0.000000 0.000000
		CHANNELS 3 Zrotation Yrotation Xrotation
		JOINT LeftUpLeg
		{
			OFFSET 1.800000 -1.400000 0.085000
			CHANNELS 3 Zrotation Yrotation Xrotation
			JOINT LeftLeg
			{
				OFFSET 2.215000 -6.000000 0.000000
				CHANNELS 3 Zrotation Yrotation Xrotation
				JOINT LeftFoot
				{
					OFFSET 2.500000 -6.900000 0.000000
					CHANNELS 3 Zrotation Yrotation Xrotation
					JOINT LeftToeBase
					{
						OFFSET 0.200000 -0.500000 1.950000
						CHANNELS 3 Zrotation Yrotation Xrotation
						End Site
						{
							OFFSET 0.000000 0.000000 0.000000
						}
					}
				}
			}
		}
	}
	JOINT RHipJoint
	{
		OFFSET 0.000000 0.000000 0.000000
		CHANNELS 3 Zrotation Yrotation Xrotation
		JOINT RightUpLeg
		{
			OFFSET -1.800000 -1.400000 0.085000
			CHANNELS 3 Zrotation Yrotation Xrotation
			JOINT RightLeg
			{
				OFFSET -2.215000 -6.000000 0.000000
				CHANNELS 3 Zrotation Yrotation Xrotation
				JOINT RightFoot
				{
					OFFSET -2.500000 -6.900000 0.000000
					CHANNELS 3 Zrotation Yrotation Xrotation
					JOINT RightToeBase
					{
						OFFSET -0.200000 -0.500000 1.950000
						CHANNELS 3 Zrotation Yrotation Xrotation
						End Site
						{
							OFFSET 0.000000 0.000000 0.000000
						}
					}
				}
			}
		}
	}
	JOINT LowerBack
	{
		OFFSET 0.000000 0.000000 0.000000
		CHANNELS 3 Zrotation Yrotation Xrotation
		JOINT Spine
		{
			OFFSET -0.087000 1.940000 -0.288900
			CHANNELS 3 Zrotation Yrotation Xrotation
			JOINT Spine1
			{
				OFFSET 0.000000 1.950000 0.060000
				CHANNELS 3 Zrotation Yrotation Xrotation
				JOINT Neck
				{
					OFFSET 0.000000 0.000000 0.000000
					CHANNELS 3 Zrotation Yrotation Xrotation
					JOINT Neck1
					{
						OFFSET 0.000000 1.600000 0.340000
						CHANNELS 3 Zrotation Yrotation Xrotation
						JOINT Head
						{
							OFFSET 0.000000 1.667000 -0.240000
							CHANNELS 3 Zrotation Yrotation Xrotation
							End Site
							{
								OFFSET 0.000000 0.000000 0.000000
							}
						}
					}
				}
				JOINT LeftShoulder
				{
					OFFSET 0.000000 0.000000 0.000000
					CHANNELS 3 Zrotation Yrotation Xrotation
					JOINT LeftArm
					{
						OFFSET 2.700000 1.550000 -0.730000
						CHANNELS 3 Zrotation Yrotation Xrotation
						JOINT LeftForeArm
						{
							OFFSET 5.450000 0.000000 0.000000
							CHANNELS 3 Zrotation Yrotation Xrotation
							JOINT LeftHand
							{
								OFFSET 3.450000 0.000000 0.000000
								CHANNELS 3 Zrotation Yrotation Xrotation
								JOINT LeftHandIndex1
								{
									OFFSET 0.750000 0.000000 0.000000
									CHANNELS 3 Zrotation Yrotation Xrotation
									End Site
									{
										OFFSET 0.000000 0.000000 0.000000
									}
								}
							}
						}
					}
				}
				JOINT RightShoulder
				{
					OFFSET 0.000000 0.000000 0.000000
					CHANNELS 3 Zrotation Yrotation Xrotation
					JOINT RightArm
					{
						OFFSET -2.700000 1.550000 -0.730000
						CHANNELS 3 Zrotation Yrotation Xrotation
						JOINT RightForeArm
						{
							OFFSET -5.450000 0.000000 0.000000
							CHANNELS 3 Zrotation Yrotation Xrotation
							JOINT RightHand
							{
								OFFSET -3.450000 0.000000 0.000000
								CHANNELS 3 Zrotation Yrotation Xrotation
								JOINT RightHandIndex1
								{
									OFFSET -0.750000 0.000000 0.000000
									CHANNELS 3 Zrotation Yrotation Xrotation
									End Site
									{
										OFFSET 0.000000 0.000000 0.000000
									}
								}
							}
						}
					}
				}
			}
		}
	}
}
MOTION
Frames: 9
Frame Time: 0.016667
3.193180 16.793900 13.238280 -108.398982 5.961011 -72.680205 -15.989877 10.560780 6.433496 -14.653341 -19.442613 37.932670 105.042706 8.652294 -26.456464 0.868277 5.703841 2.269806 0.482140 0.405510 0.632920 18.164979 -8.602614 2.662209 58.921163 -24.315793 10.922626 5.515409 0.842900 -87.442552 -1.017697 -2.922567 3.053613 0.053400 -0.581580 0.108560 -2.275795 -4.767569 -7.833002 -77.560880 43.045807 -9.052018 20.827061 41.364235 11.281468 5.287774 -3.913762 -14.689903 -5.328727 3.547802 38.161478 5.180230 8.643680 -38.291200 15.554105 -20.631361 6.683763 43.322138 2.372992 -7.576214 10.942537 2.323671 -1.531317 -3.721585 2.207946 0.858710 -0.532520 0.646260 -0.122100 -14.148548 45.156246 -3.441067 -32.674553 12.953117 -23.830173 -21.744672 -9.113947 -1.440427 4.251665 -0.338044 0.052460 0.026330 -0.184770 -0.305120 
3.288000 17.093510 13.249240 -73.296135 -1.643433 -78.108758 -14.966265 11.476271 5.928560 -1.105074 -12.968641 34.778079 78.799025 2.825586 -24.037774 0.844301 6.133535 2.257394 0.655320 0.630210 0.775200 18.554721 -12.119843 1.387163 12.519932 -33.806074 50.974104 32.775933 6.721866 -61.968962 -1.390233 -3.973316 2.707595 0.293470 -0.505700 0.076600 -4.405215 0.191185 -6.098229 -89.089489 34.594464 -40.686785 17.901024 58.631035 11.509874 7.605763 -5.425286 -12.677913 -3.625767 2.714237 34.422050 3.221500 9.519420 -39.876090 13.363855 -18.935661 5.977484 46.647407 0.470241 -8.904249 16.779995 2.821618 -1.660100 -3.726545 2.429368 0.844540 -0.462230 0.654690 -0.051650 -14.592023 52.030907 -14.988626 -32.196136 18.576485 -28.973297 -32.547530 -10.307793 -2.779362 4.530325 -0.685925 -0.027240 0.236730 -0.236940 -0.327130 
3.231360 16.989300 13.453290 -87.968074 2.352967 -74.686463 -15.227975 10.589388 6.216358 8.032802 -21.545131 29.409891 71.200757 6.211796 -31.750867 0.776550 5.781430 2.417691 0.647560 0.616650 0.749480 18.464684 -10.687016 2.190726 44.299937 -37.016704 28.605842 6.120076 -4.282667 -57.551968 -1.537201 -4.888870 2.433003 0.302900 -0.488100 0.073350 -3.833416 -0.973665 -6.614646 -82.190107 39.860899 -23.815697 15.121501 53.099822 9.172925 6.976600 -5.481732 -12.280300 -5.241114 2.415634 31.347248 1.694400 7.982070 -38.608510 11.583074 -17.946683 4.787727 43.206074 -3.504908 -9.187879 16.921152 0.284542 -1.535644 -3.685109 2.531333 0.791050 -0.435370 0.610040 -0.037570 -14.938559 49.225578 -9.779587 -36.560546 16.852692 -30.978272 -29.565296 -9.247255 -2.784942 4.376173 -0.639076 -0.026530 0.227670 -0.236100 -0.313340 
3.178280 17.114970 13.588900 -101.123140 1.289024 -73.090664 -15.877936 8.857727 8.862008 54.673707 -15.387551 -5.717440 9.260102 -1.688718 -35.023158 1.074143 7.159151 1.982260 0.583350 0.539230 0.634210 18.323458 -9.299417 1.127890 47.204431 -46.792070 22.727581 14.644689 -2.994364 -51.102012 -1.382181 -4.739646 2.540239 0.266740 -0.391020 0.066800 -2.808776 -1.848195 -7.513379 -70.155612 45.261899 -6.679105 11.865420 46.347096 3.790057 6.368814 -5.987351 -12.840717 -6.919101 1.511048 26.753710 1.500810 5.202830 -32.339120 9.213813 -17.733300 3.589263 40.737868 -6.365778 -9.978238 17.484281 -1.265069 -1.484263 -3.762392 2.630895 0.627130 -0.353660 0.481330 0.016380 -12.077703 45.468429 -0.861368 -42.441543 10.724923 -30.076208 -27.891145 4.110102 -3.721321 3.535661 -0.929058 -0.006720 0.185410 -0.238600 -0.240620 
3.171540 17.135850 13.674760 -101.629538 7.605268 -76.391396 -15.464824 9.055737 5.778838 37.073518 -21.567606 8.972699 29.505059 -0.019125 -31.152788 0.886156 6.265419 2.456544 0.508130 0.470390 0.607180 18.526385 -7.322831 4.794752 62.052817 -25.139835 7.481070 -18.350803 -2.293464 -13.372318 -1.103039 -4.094134 2.821992 0.279860 -0.257870 0.088090 -3.419125 -2.135114 -7.737246 -72.714183 40.582492 -2.069725 10.109623 50.852364 5.732196 7.702789 -4.616458 -11.692130 -2.572638 1.158332 20.727198 -1.857210 8.281790 -29.731830 5.082918 -15.874893 3.839152 33.743109 -6.896450 -10.192820 34.322518 -1.415666 -2.055867 -3.935271 3.052629 0.521290 -0.186970 0.378660 0.018300 -15.074554 45.074704 1.050907 -49.756516 7.145833 -28.199824 -26.489985 5.302808 -3.130377 3.449208 -0.883500 -0.072970 0.200000 -0.201940 -0.257550 
2.644740 17.155070 13.872000 -30.994500 6.648301 -88.544064 -16.335520 12.999785 4.818466 -10.004747 2.768491 56.940062 40.776382 -7.926202 14.123055 1.525713 7.721134 2.123320 -0.064130 0.119150 0.061420 17.719462 -4.964787 6.278498 27.785037 -25.303211 60.257004 -36.577756 3.517099 3.470214 -1.776535 -7.282994 1.869483 0.118160 0.371390 0.070930 -1.340941 -8.606250 -8.467931 -80.996248 21.378080 -36.132114 -64.971555 48.195428 -37.503602 16.504082 -1.795318 -26.330888 3.078285 10.131785 -6.344520 4.480620 24.375700 -17.560160 -30.484497 39.228653 -16.051666 52.626114 -2.869636 46.937048 6.209899 33.144288 -4.391197 -0.152254 0.556150 0.122540 0.244370 0.075300 0.043650 -41.821008 11.310800 31.846163 -48.768402 -47.133371 14.151366 12.585126 -25.454790 -15.753798 15.259190 5.004922 -0.252860 0.262870 0.022170 -0.031720 
2.365000 17.059340 14.207410 59.014880 -9.474654 -87.985641 -16.018275 10.333709 6.819571 -61.020884 21.278485 11.475760 2.726286 2.393813 6.503442 0.199578 4.587324 2.851142 0.550760 0.486300 0.647740 18.274220 -6.584318 3.555254 -33.968213 32.271965 59.490830 -22.054918 -1.164296 -35.198362 -1.901892 -7.081416 1.865834 0.305810 -0.331420 0.091790 -2.447044 -5.625357 -8.751816 87.309051 -21.456921 -36.631787 -24.159388 -45.606423 1.249736 7.843413 5.394930 -10.386678 4.568405 -5.094464 35.103682 -9.283950 -2.113480 -26.956420 -18.365156 -44.467669 9.894086 23.482606 -9.366218 -21.157978 27.800688 -35.316580 -6.201773 -5.257800 3.593490 0.510070 -0.220330 0.384080 -0.013820 -20.662028 31.980034 -11.381432 -53.599955 40.399230 -31.609080 -7.691024 5.878869 -1.091053 2.687999 -1.032753 -0.034430 0.229270 -0.162750 -0.250620 
2.094830 16.922630 14.353460 68.185371 -6.784771 -80.598109 -15.887548 10.646382 6.418567 -70.661546 26.273580 8.723959 0.232798 4.489495 -18.335775 0.141004 4.394454 2.852587 0.593450 0.509940 0.713240 18.294637 -6.888737 3.449105 -39.760181 35.325390 49.111564 -26.624388 -1.468294 -25.156946 -1.937820 -7.175925 1.822394 0.303910 -0.460260 0.089440 -2.703025 -5.280029 -8.521117 85.148080 -15.427039 -41.203783 -31.903252 -35.296623 4.080584 13.540817 2.583444 -9.200575 1.171002 -5.579608 44.792871 -13.610740 -4.562520 -27.773480 -26.738240 -43.170293 14.885273 16.473687 -12.429464 -17.075506 29.000352 -43.703936 -8.444885 -5.096161 3.573207 0.579260 -0.306600 0.453180 -0.054570 -17.843892 39.107841 -16.676998 -41.852375 50.157743 -27.212153 -5.634274 0.175767 -1.138501 2.877288 -0.936793 -0.002520 0.211610 -0.163020 -0.281880 
2.456800 16.866130 14.411930 -18.500761 15.875396 -76.913605 -15.195422 11.141544 3.737377 -10.386731 20.524991 61.951378 -29.602711 6.675887 -23.109167 1.795624 8.993188 1.707008 -0.200760 -0.005750 0.042540 19.007051 -6.844040 6.002885 31.906446 -12.415603 53.513919 -25.306559 1.500493 11.316001 -1.772798 -7.672224 1.721936 -0.016120 0.354980 0.177170 -4.166195 -3.727251 -8.422402 -88.557115 18.532313 -31.067076 -84.509154 31.273391 -46.717286 24.887989 4.426024 -29.002764 6.033802 9.335672 -12.457686 0.571180 29.360820 -18.243380 -32.971535 36.075028 -20.121661 72.188269 -1.158495 56.770312 16.414355 52.367925 -10.588634 -0.029183 0.550804 0.063570 0.306930 0.110440 -0.027640 -33.808398 -3.402077 50.517211 -19.495212 -48.852471 38.755185 25.522593 -17.295611 -5.163283 -0.460249 7.626033 -0.194780 0.086790 0.050690 -0.032480 
